<svg xmlns="http://www.w3.org/2000/svg" width="379" height="72"><title>FindusonFacebook</title><g fill="none"><g><path fill="#375185" d="M374.5.17h-63.8c-2.18 0-3.95 1.77-3.95 3.96V67.9c0 2.2 1.77 3.97 3.95 3.97h63.8c2.18 0 3.95-1.77 3.95-3.96V4.14c0-2.2-1.77-3.96-3.96-3.96"/><path fill="#fff" d="M365.54 44.1l1.4-10.82H356.2v-6.9c0-3.14.87-5.27 5.36-5.27h5.73v-9.68c-.98-.13-4.38-.42-8.34-.42-8.26 0-13.92 5.04-13.92 14.3v7.98h-9.34V44.1h9.34v27.77h11.18V44.1h9.32"/><g fill="#fff"><path d="M.65 15.12H28.5v5.78H6.8v14.65h17.97v5.7H6.8v18.98H.65v-45.1"/><path d="M35.82 60.23v-33.2l5.92-.94v34.13h-5.92zm2.96-40.34c-2.67 0-3.9-2.03-3.9-4.27 0-2.24 1.23-4.26 3.9-4.26s3.9 2.02 3.9 4.26c0 2.24-1.23 4.26-3.9 4.26z"/><path d="M71.8 60.23V39.45c0-5.7-2.16-7.65-6.85-7.65-3.47 0-6.8 1.8-8.67 3.6v24.83h-5.9l-.02-33.2 5.92-.94v4.98c3.04-3.04 6.93-5 10.76-5 6.7 0 10.68 4.27 10.68 11.42v22.73H71.8"/><path d="M102.14 31.44c-6.72 0-10.47 5.48-10.47 12.26 0 7.3 3.7 12.13 9.82 12.13 3.1 0 5.76-1.23 8-3.17 0 .36 0-18.84 0-18.84-1.95-1.6-4.47-2.38-7.36-2.38zm7.36-19.85l5.92-.95v49.58h-5.92V57.2c-2.38 2.24-5.34 4.12-9.24 4.12-9.3 0-14.72-7.5-14.72-17.47 0-10.03 6.93-17.76 16.8-17.76 2.4 0 5.07.43 7.16 1.08v-15.6z"/><path d="M143.78 27.18v20.78c0 5.7 2.17 7.66 6.5 7.66 3.82 0 7.15-1.8 9.02-3.6V27.17h5.92v33.2l-5.92.94v-4.84c-3.03 3.03-6.93 4.84-11.1 4.84-6.36 0-10.33-4.26-10.33-11.4V27.17h5.9"/><path d="M184.15 61.4c-4.04 0-8.5-1.24-11.55-3.1l1.52-5.43c2.74 1.88 6.78 3.1 10.18 3.1 3.75 0 6.57-1.73 6.57-4.7 0-3.3-3.9-4.4-7.8-5.47-4.7-1.3-9.8-3.6-9.8-9.67-.02-6.14 5.18-10.04 11.82-10.04 3.82 0 7.64.93 10.67 2.45l-1.5 5.4c-2.75-1.5-6.72-2.44-9.47-2.44-3.53 0-5.84 1.45-5.84 4.12 0 3.18 3.53 4.26 7.65 5.34 4.84 1.3 10.04 3.6 10.04 9.9 0 6.27-5.27 10.53-12.5 10.53"/><path d="M231.27 31.36c-6.56 0-10.17 5.13-10.17 12.27 0 7.08 3.82 12.35 10.32 12.35 6.57 0 10.17-5.06 10.17-12.2 0-7.08-3.83-12.42-10.33-12.42zm-.07 29.96c-9.38 0-15.95-6.93-15.95-17.62 0-10.6 6.78-17.68 16.3-17.68 9.47 0 15.9 7 15.9 17.68 0 10.62-6.94 17.62-16.25 17.62z"/><path d="M275.36 60.23V39.45c0-5.7-2.17-7.65-6.86-7.65-3.46 0-6.8 1.8-8.66 3.6v24.83h-5.92v-33.2l5.92-.94v4.98c3.03-3.04 6.93-5 10.75-5 6.7 0 10.67 4.27 10.67 11.42v22.73h-5.9"/></g></g></g></svg>